<?xml version="1.0" encoding="utf-8"?>
<!-- Generator: Adobe Illustrator 27.1.1, SVG Export Plug-In . SVG Version: 6.00 Build 0)  -->
<svg version="1.1" id="Layer_1" xmlns="http://www.w3.org/2000/svg" xmlns:xlink="http://www.w3.org/1999/xlink" x="0px" y="0px"
	 viewBox="0 0 500 500" style="enable-background:new 0 0 500 500;" xml:space="preserve">
<style type="text/css">
	.st0{fill-rule:evenodd;clip-rule:evenodd;fill:#006C35;}
	.st1{fill:#006C35;}
</style>
<g>
	<path id="path4334" class="st0" d="M269.2,320.1c-0.7-5.2,4.9-10.6,9.8-10.8c4.4-0.2,8.6,3.2,10.3,8.1c6.9,19.9,18,51.9,18,51.9
		l107.6-0.5c30.5-43.6,40.4-85.9,34.2-135.4c-0.5-3.9,1.7-9.6,7.4-10.1c7.4-0.7,9.1,8.9,9.6,12.6c15.5,115-70.9,219.4-178.7,230.7
		C287.5,466.3,274.9,363.2,269.2,320.1L269.2,320.1z"/>
	<path id="path4336" class="st0" d="M440.6,237.1c-0.7-3.2-1.7-10.8-9.1-10.3c-7.6,0.5-7.6,8.6-7.1,12.6c4.2,50.5-4.4,77.3-31,117.2
		h21.2C437.4,316.6,445.8,278.5,440.6,237.1L440.6,237.1z"/>
	<path id="path4336-7" class="st0" d="M414,241.5c-0.7-3.2-1.7-10.8-9.1-10.3c-7.6,0.5-7.6,8.6-7.1,12.6
		c1.7,51.9-6.9,74.8-39.1,112.8h23.1C408.1,318.1,419.4,282.9,414,241.5L414,241.5z"/>
	<path id="path4336-0" class="st0" d="M386.7,245.5c-0.7-3.2-1.7-10.8-9.1-10.3c-7.6,0.5-7.6,8.6-7.1,12.6
		c4.2,50.5-20.7,88.4-56.4,108.8h31.5C377.8,322.5,392.1,286.8,386.7,245.5z"/>
	<path id="path4334-6" class="st0" d="M243.6,320.3c0.7-5.2-4.9-10.6-9.8-10.8c-4.4-0.2-8.6,3.2-10.3,8.1c-6.9,19.9-18,51.9-18,51.9
		l-107.6-0.5c-30.5-43.6-40.4-85.9-34.2-135.4c0.5-3.9-1.7-9.6-7.4-10.1c-7.4-0.7-9.1,8.9-9.6,12.6
		c-15.5,115,70.9,219.4,178.7,230.7C225.4,466.8,238,363.7,243.6,320.3L243.6,320.3z"/>
	<path id="path4336-8" class="st0" d="M72.3,237.6c0.7-3.2,1.7-10.8,9.1-10.3c7.6,0.5,7.6,8.6,7.1,12.6c-4.2,50.5,4.4,77.3,31,117.2
		H98.4C75.5,317.1,67.1,278.7,72.3,237.6z"/>
	<path id="path4336-7-3" class="st0" d="M98.9,242c0.7-3.2,1.7-10.8,9.1-10.3c7.6,0.5,7.6,8.6,7.1,12.6
		c-1.7,51.9,6.9,74.8,39.1,112.8h-23.1C104.8,318.6,93.5,283.2,98.9,242z"/>
	<path id="path4336-0-0" class="st0" d="M125.9,246c0.7-3.2,1.7-10.8,9.1-10.3c7.6,0.5,7.6,8.6,7.1,12.6
		c-4.2,50.5,20.7,88.4,56.4,108.8h-31.3C134.8,323,120.8,287.3,125.9,246z"/>
	<g>
		<g>
			<path class="st1" d="M97.4,113.3c2.2-6.9,7.6-11.1,12.6-15.5c26.6-24.4,57.1-41.1,91.8-50c26.6-6.9,53.7-8.4,81-4.9
				c36.9,4.7,70.7,18,100.4,40.4c8.9,6.6,17.2,14.5,25.4,22.2c2.2,2.2,3.4,5.4,5.2,8.1c0,2,0,4.2,0,6.2c-1,2.2-2,4.7-3.2,6.6
				c-5.9,7.9-16.5,8.6-24.1,1.7c-5.9-5.2-11.3-10.8-17.5-15.5c-26.6-20.9-56.6-34-90.1-37.7c-58.8-7.1-109.6,10.1-152.1,51
				c-2.7,2.5-5.9,4.9-9.4,5.9c-7.4,2.5-15.5-2.2-18.5-9.6c-0.2-1-0.7-2-1.2-2.7C97.4,117.5,97.4,115.2,97.4,113.3z"/>
			<path class="st1" d="M261.6,100.7c39.4,0.7,78,17.5,109.1,51c6.6,6.9,6.4,16.7-0.2,22.9c-6.4,6.2-16.2,5.9-22.7-1
				c-13.3-14.3-28.8-25.1-46.8-32.3c-45.8-18.5-99.7-6.9-133.9,28.6c-1.5,1.5-3,3.2-4.7,4.7c-6.2,5.7-15.3,5.7-21.4,0.2
				c-6.2-5.7-7.1-14.8-2-21.2c7.1-9.1,16-16.5,25.4-23.4C191.4,110.8,222.7,100.7,261.6,100.7z"/>
			<path class="st1" d="M320.9,225.8c-5.9-0.2-9.8-2.7-13.5-6.6c-4.7-5.2-9.4-10.3-14.5-14.5c-20.9-16.2-53.4-16.2-74.4,0
				c-5.9,4.7-10.8,10.6-16,16c-6.6,6.9-17.2,6.9-23.6-0.2c-5.2-5.9-5.4-14-0.5-20.7c6.6-8.9,14.5-16.5,23.6-22.9
				c42.6-28.8,100.4-18.7,130.7,22.7c3.9,5.4,4.9,11.3,2,17.5C331.8,222.8,326.8,225.5,320.9,225.8z"/>
			<path class="st1" d="M255.4,292c-19.9,0-35.7-16.2-35.7-36.2c0.2-19.7,16.2-35.7,35.9-35.5c19.9,0,35.7,16.2,35.7,36.2
				C291.4,276.3,275.4,292,255.4,292z"/>
		</g>
	</g>
</g>
</svg>
